<svg width="900" height="720" viewBox="0 0 900 720" fill="none" xmlns="http://www.w3.org/2000/svg">
  <defs>
    <linearGradient id="body" x1="190" y1="172" x2="680" y2="548" gradientUnits="userSpaceOnUse"><stop stop-color="#22E2FF"/><stop offset=".48" stop-color="#167BFF"/><stop offset="1" stop-color="#7B2CFF"/></linearGradient>
    <linearGradient id="top" x1="160" y1="156" x2="710" y2="278" gradientUnits="userSpaceOnUse"><stop stop-color="#41EAFF"/><stop offset="1" stop-color="#0084FF"/></linearGradient>
    <radialGradient id="orb" cx="0" cy="0" r="1" gradientUnits="userSpaceOnUse" gradientTransform="translate(450 345) rotate(90) scale(320 390)"><stop stop-color="#12CFFF" stop-opacity=".26"/><stop offset="1" stop-color="#7B2CFF" stop-opacity="0"/></radialGradient>
    <filter id="blur"><feGaussianBlur stdDeviation="18"/></filter>
    <style>
      @keyframes drift{0%,100%{transform:translateY(0) rotate(-1deg)}50%{transform:translateY(-22px) rotate(1.5deg)}}
      @keyframes wing{0%,100%{transform:rotate(0deg)}50%{transform:rotate(-2.4deg)}}
      @keyframes spin{to{transform:rotate(360deg)}}
      @keyframes dash{to{stroke-dashoffset:-900}}
      @keyframes twinkle{0%,100%{opacity:.2}50%{opacity:1}}
      #bird{transform-origin:450px 340px;animation:drift 5.6s ease-in-out infinite}#lower{transform-origin:350px 388px;animation:wing 2.8s ease-in-out infinite}.ring{transform-origin:450px 350px;animation:spin 20s linear infinite}.dash{stroke-dasharray:24 22;animation:dash 18s linear infinite}.s{animation:twinkle 3s ease-in-out infinite}.s2{animation-delay:.8s}.s3{animation-delay:1.5s}
    </style>
  </defs>
  <ellipse cx="450" cy="350" rx="350" ry="280" fill="url(#orb)"/>
  <g class="ring"><ellipse cx="450" cy="350" rx="330" ry="158" stroke="#16D8FF" stroke-opacity=".26" stroke-width="2" class="dash"/></g>
  <g class="ring" style="animation-duration:28s;animation-direction:reverse"><ellipse cx="450" cy="350" rx="232" ry="310" stroke="#7B2CFF" stroke-opacity=".22" stroke-width="2" class="dash" transform="rotate(55 450 350)"/></g>
  <g filter="url(#blur)" opacity=".45"><path d="M160 178c151 51 275-5 396-14 70-5 134 34 195 92-93-14-168 4-226 51-114 90-265 78-365-129Z" fill="#0FAEFF"/></g>
  <g id="bird">
    <path d="M160 178c151 51 275-5 396-14 70-5 134 34 195 92-93-14-168 4-226 51-114 90-265 78-365-129Z" fill="url(#top)"/>
    <path d="M160 178c49 140 161 214 288 203 106-9 181-67 303-125-40 0-74 6-103 15-72 25-145 50-227 46-101-5-188-46-261-139Z" fill="#06101F" opacity=".55"/>
    <g id="lower">
      <path d="M200 359c142 59 260 26 374-34-61 107-144 185-250 228-59-34-102-97-124-194Z" fill="url(#body)"/>
      <path d="M238 484c105 40 197 19 284-31-55 82-127 140-218 174-41-29-62-73-66-143Z" fill="#742AFF"/>
      <path d="M197 357c112 51 222 34 327-37" stroke="#030814" stroke-width="27" stroke-linecap="round" opacity=".74"/>
      <path d="M235 482c86 39 179 23 278-37" stroke="#030814" stroke-width="27" stroke-linecap="round" opacity=".74"/>
    </g>
    <path d="M556 164c74 5 144 40 216 97-102-3-181 15-236 53l-28-58c-9-21 16-93 48-92Z" fill="#0A93FF"/>
    <path d="M640 248c42 2 86 7 132 13-53 14-97 31-135 52l-66-29c18-21 40-34 69-36Z" fill="#081020"/>
    <circle cx="512" cy="235" r="23" fill="#020712"/>
    <circle cx="518" cy="229" r="6" fill="#DFFFF7" opacity=".75"/>
    <path d="M160 178c117 113 269 133 459 46" stroke="white" stroke-opacity=".19" stroke-width="14" stroke-linecap="round"/>
  </g>
  <circle class="s" cx="128" cy="190" r="4" fill="#22E2FF"/><circle class="s s2" cx="778" cy="208" r="5" fill="#7B2CFF"/><circle class="s s3" cx="704" cy="582" r="4" fill="#22E2FF"/><circle class="s s2" cx="246" cy="586" r="3" fill="#F7C873"/><circle class="s" cx="454" cy="78" r="3" fill="#fff"/>
</svg>
