<svg width="512" height="512" viewBox="0 0 512 512" fill="none" xmlns="http://www.w3.org/2000/svg">
  <defs>
    <linearGradient id="bg" x1="72" y1="58" x2="442" y2="449" gradientUnits="userSpaceOnUse"><stop stop-color="#12D9FF"/><stop offset="0.5" stop-color="#176BFF"/><stop offset="1" stop-color="#7D2CFF"/></linearGradient>
    <radialGradient id="shine" cx="0" cy="0" r="1" gradientUnits="userSpaceOnUse" gradientTransform="translate(160 115) rotate(51) scale(300 350)"><stop stop-color="white" stop-opacity=".35"/><stop offset=".55" stop-color="white" stop-opacity="0"/></radialGradient>
    <filter id="shadow" x="-20%" y="-20%" width="140%" height="140%"><feDropShadow dx="0" dy="20" stdDeviation="28" flood-color="#000" flood-opacity=".36"/></filter>
  </defs>
  <rect x="42" y="42" width="428" height="428" rx="112" fill="url(#bg)"/>
  <rect x="42" y="42" width="428" height="428" rx="112" fill="url(#shine)"/>
  <g transform="translate(34 42) scale(.86)" filter="url(#shadow)">
    <path d="M95 126c86 29 157-3 226-8 40-3 76 19 111 52-53-8-96 2-129 29-65 51-151 45-208-73Z" fill="#1FE2FF"/>
    <path d="M95 126c28 80 92 122 164 116 60-5 103-38 173-72-23 0-42 3-59 9-41 14-82 28-129 26-58-3-107-26-149-79Z" fill="#041025" opacity="0.58"/>
    <path d="M118 229c81 34 148 15 213-19-35 61-82 105-143 129-33-19-58-55-70-110Z" fill="#7B2CFF"/>
    <path d="M140 300c60 23 112 11 162-17-31 47-72 80-124 99-23-16-35-41-38-82Z" fill="#14CFFF"/>
    <path d="M116 228c64 29 126 19 186-21" stroke="#030814" stroke-width="15" stroke-linecap="round" opacity="0.78"/>
    <path d="M137 299c49 22 102 13 159-21" stroke="#030814" stroke-width="15" stroke-linecap="round" opacity="0.78"/>
    <path d="M320 118c42 3 82 23 123 55-58-2-103 8-134 30l-16-33c-5-12 9-53 27-52Z" fill="#09A8FF"/>
    <path d="M367 166c24 1 49 4 76 7-30 8-55 17-77 29l-37-16c10-12 22-19 38-20Z" fill="#071020"/>
    <circle cx="294" cy="158" r="13" fill="#020712"/>
  </g>
  <path d="M379 120l14 31 32 14-32 14-14 32-14-32-32-14 32-14 14-31Z" fill="#061018" opacity=".78"/>
  <rect x="43" y="43" width="426" height="426" rx="111" stroke="white" stroke-opacity=".16" stroke-width="2"/>
</svg>
